# xmcd CD database file
#
# Track frame offsets:
#	150
#	17535
#	37625
#	55065
#
# Disc length: 999 seconds
#
# Revision: 0
# Processed by: cddbd v1.5.1PL0 Copyright (c) Steve Scherf et al.
# Submitted via: CDex 1.51
#
DISCID=1e03e504
DTITLE=中山真奈美　他 - 卒業? Wedding Bell
DYEAR=1998
DGENRE=Game
TTITLE0=Happy Bell
TTITLE1=天使のくちびる
TTITLE2=Happy Bell(Inst)
TTITLE3=天使のくちびる(Inst)
EXTD=YEAR: 1998
EXTT0=
EXTT1=
EXTT2=
EXTT3=
PLAYORDER=
